<svg width="30" height="30" viewBox="0 0 30 30" fill="none" xmlns="http://www.w3.org/2000/svg">
<path d="M20.7692 12.6923C20.7692 10.4688 19.979 8.56671 18.3984 6.98618C16.8179 5.40565 14.9159 4.61538 12.6923 4.61538C10.4688 4.61538 8.56671 5.40565 6.98618 6.98618C5.40565 8.56671 4.61538 10.4688 4.61538 12.6923C4.61538 14.9159 5.40565 16.8179 6.98618 18.3984C8.56671 19.979 10.4688 20.7692 12.6923 20.7692C14.9159 20.7692 16.8179 19.979 18.3984 18.3984C19.979 16.8179 20.7692 14.9159 20.7692 12.6923ZM30 27.6923C30 28.3173 29.7716 28.8582 29.3149 29.3149C28.8582 29.7716 28.3173 30 27.6923 30C27.0433 30 26.5024 29.7716 26.0697 29.3149L19.8858 23.149C17.7344 24.6394 15.3365 25.3846 12.6923 25.3846C10.9736 25.3846 9.32993 25.0511 7.76142 24.384C6.19291 23.7169 4.84074 22.8155 3.70493 21.6797C2.56911 20.5439 1.66767 19.1917 1.0006 17.6232C0.333534 16.0547 0 14.4111 0 12.6923C0 10.9736 0.333534 9.32993 1.0006 7.76142C1.66767 6.19291 2.56911 4.84074 3.70493 3.70493C4.84074 2.56911 6.19291 1.66767 7.76142 1.0006C9.32993 0.333534 10.9736 0 12.6923 0C14.4111 0 16.0547 0.333534 17.6232 1.0006C19.1917 1.66767 20.5439 2.56911 21.6797 3.70493C22.8155 4.84074 23.7169 6.19291 24.384 7.76142C25.0511 9.32993 25.3846 10.9736 25.3846 12.6923C25.3846 15.3365 24.6394 17.7344 23.149 19.8858L29.3329 26.0697C29.7776 26.5144 30 27.0553 30 27.6923Z" fill="white"/>
</svg>
